<?xml version="1.0" standalone="no"?>
<!DOCTYPE svg PUBLIC "-//W3C//DTD SVG 20010904//EN"
 "http://www.w3.org/TR/2001/REC-SVG-20010904/DTD/svg10.dtd">
<svg version="1.0" xmlns="http://www.w3.org/2000/svg"
 width="600.000000pt" height="595.000000pt" viewBox="0 0 600.000000 595.000000"
 preserveAspectRatio="xMidYMid meet">

<g transform="translate(0.000000,595.000000) scale(0.100000,-0.100000)"
fill="#000000" stroke="none">
<path d="M2725 5905 c-196 -19 -318 -40 -485 -84 -84 -22 -249 -76 -295 -96
-236 -101 -386 -179 -545 -283 -63 -41 -117 -78 -120 -81 -3 -3 -23 -19 -45
-36 -138 -101 -351 -303 -477 -452 -155 -183 -325 -442 -410 -623 -34 -74 -67
-147 -88 -200 -12 -30 -26 -64 -30 -75 -12 -29 -51 -145 -61 -180 -4 -16 -15
-55 -24 -85 -18 -63 -48 -212 -64 -315 -45 -300 -44 -544 5 -860 17 -106 18
-111 60 -275 88 -349 263 -724 473 -1015 151 -210 319 -387 546 -574 157 -129
477 -319 690 -408 370 -155 758 -233 1148 -233 194 1 455 28 612 65 119 28
138 33 195 50 30 9 69 20 85 24 34 10 136 47 180 66 17 7 55 23 85 36 473 197
924 561 1239 997 223 311 412 743 480 1102 71 372 85 580 57 852 -23 215 -52
366 -107 568 -23 81 -28 98 -53 168 -216 601 -612 1106 -1151 1468 -49 33 -97
64 -105 67 -8 4 -31 17 -50 28 -19 12 -84 47 -145 78 -94 49 -150 73 -325 143
-14 5 -45 16 -70 24 -25 8 -61 19 -80 26 -52 17 -102 29 -250 63 -262 58 -589
77 -875 50z m580 -460 c327 -42 531 -107 850 -269 302 -154 522 -325 715 -556
74 -89 240 -313 240 -323 0 -2 21 -39 48 -83 41 -69 128 -239 153 -299 77
-186 115 -324 151 -540 18 -110 18 -690 0 -800 -15 -93 -38 -203 -54 -260 -70
-256 -259 -631 -435 -866 -307 -409 -880 -783 -1374 -897 -377 -88 -956 -79
-1274 19 -87 26 -123 38 -150 49 -16 7 -41 17 -55 23 -14 5 -34 13 -45 18 -45
18 -254 121 -303 149 -107 61 -275 176 -371 254 -73 59 -252 243 -324 331
-211 261 -405 631 -477 910 -5 17 -15 55 -23 85 -17 64 -41 182 -59 295 -17
106 -17 476 0 580 7 44 20 116 29 160 13 71 22 107 53 220 45 166 159 430 254
590 155 262 336 479 546 655 177 149 600 386 815 457 329 110 724 145 1090 98z"/>
<path d="M2780 4820 c-191 -40 -339 -115 -485 -242 -133 -117 -250 -283 -305
-433 -4 -11 -15 -38 -23 -60 -38 -95 -87 -299 -87 -359 0 -41 -20 -59 -87 -81
-93 -30 -120 -84 -134 -270 -15 -203 -23 -1439 -10 -1765 16 -435 3 -419 371
-433 129 -4 667 -6 1195 -4 1066 5 1012 2 1108 72 l47 35 0 1118 c0 614 -4
1122 -8 1127 -14 20 -143 125 -171 140 -31 15 -57 70 -71 145 -5 25 -13 73
-19 106 -11 62 -60 220 -88 284 -81 185 -206 350 -345 455 -71 54 -220 127
-293 145 -182 45 -438 53 -595 20z m463 -455 c158 -37 297 -184 366 -386 36
-104 49 -166 53 -244 l3 -60 -630 1 c-379 0 -642 5 -660 11 -49 16 -47 53 13
218 83 230 234 396 402 444 25 8 56 17 70 21 43 14 320 11 383 -5z m657 -1965
l0 -780 -900 0 -900 0 0 780 0 780 900 0 900 0 0 -780z"/>
</g>
</svg>
